<svg id="Layer_1" data-name="Layer 1" xmlns="http://www.w3.org/2000/svg" viewBox="0 0 9.53 4.96"><defs><style>.cls-1{fill:#c4c4c4;}</style></defs><title>image-placeholder-drop</title><path class="cls-1" d="M9.75,2.38l-4-1.51A0.15,0.15,0,0,0,5.51,1L4.33,4.11a0.15,0.15,0,0,0,.09.19l4,1.51a0.15,0.15,0,0,0,.19-0.09L9.83,2.57a0.15,0.15,0,0,0-.09-0.19h0ZM9.5,2.61l-1,2.66L7.83,3.67a0.15,0.15,0,0,0-.2-0.08L7,3.92,6.64,2.84a0.15,0.15,0,0,0-.09-0.1h0a0.15,0.15,0,0,0-.13,0L4.76,3.81l1-2.61ZM8.25,5.41L4.81,4.13l1.6-1L6.73,4.17a0.15,0.15,0,0,0,.21.09l0.68-.34Zm0,0" transform="translate(-0.31 -0.86)"/><path class="cls-1" d="M7.91,3.34a0.49,0.49,0,1,0-.29-0.63,0.49,0.49,0,0,0,.29.63h0ZM8.15,2.7a0.19,0.19,0,1,1-.25.11A0.19,0.19,0,0,1,8.15,2.7h0Zm0,0" transform="translate(-0.31 -0.86)"/><path d="M1.39,4.56" transform="translate(-0.31 -0.86)"/><path d="M2.5,2.29" transform="translate(-0.31 -0.86)"/><path class="cls-1" d="M0.95,4.55H0.84l0,0h0l0,0h0L0.33,3.7A0.1,0.1,0,0,1,.38,3.55a0.15,0.15,0,0,1,.18.07L0.8,4a2.84,2.84,0,0,1,.36-0.83,2.65,2.65,0,0,1,3.46-1,0.12,0.12,0,0,1,.07.14v0a0.13,0.13,0,0,1-.18,0,2.38,2.38,0,0,0-3.11.89A2.68,2.68,0,0,0,1,4.15l0.44-.34a0.15,0.15,0,0,1,.19,0,0.1,0.1,0,0,1,0,.16L1,4.53l0,0h0Zm0,0" transform="translate(-0.31 -0.86)"/></svg>