<svg id="Layer_1" data-name="Layer 1" xmlns="http://www.w3.org/2000/svg" xmlns:xlink="http://www.w3.org/1999/xlink" viewBox="0 0 2048 2048"><defs><linearGradient id="linear-gradient" x1="535.57" y1="2032.81" x2="2050.35" y2="518.02" gradientUnits="userSpaceOnUse"><stop offset="0" stop-color="#396c61"/><stop offset="0.09" stop-color="#3c6f63"/><stop offset="0.45" stop-color="#44786a"/><stop offset="0.99" stop-color="#467b6c"/></linearGradient><linearGradient id="linear-gradient-2" x1="-82.72" y1="262.13" x2="1458.48" y2="1803.33" gradientUnits="userSpaceOnUse"><stop offset="0" stop-color="#ccc0b2"/><stop offset="0.26" stop-color="#aaac9f"/><stop offset="0.83" stop-color="#537b70"/><stop offset="0.99" stop-color="#396c61"/></linearGradient></defs><path d="M2035.56,503.23c-56.35-56.18-171.27-152.64-323.3-156.35-182.59-4.46-311.29,127.5-449,268.7-206.94,212.17-360.59,489.49-509.9,759a996.37,996.37,0,0,1-71.81,112.17c-38.44,52.1-78.56,99-105.36,121.18-111.65,92.59-243.52,119.32-338.23,127.28,58,52,156,127.82,294.62,182.67,69.11,27.34,308,117.9,598.69,38.89,70.77-19.24,237.85-66.79,381.84-211,0,0,251.41-251.7,277-814.35.14-3.08.26-6.36.57-11.77,4.62-81.65,13.1-231.45,106.67-331.17C1920.14,564.12,1962.68,527.18,2035.56,503.23Z" style="fill:url(#linear-gradient)"/><path d="M120.09,59.32a1771.29,1771.29,0,0,0,246.7,181.5C581.62,371.8,692.32,375.7,967,489.09c290.7,120,436.05,180,557.83,326.84,47,56.62,177.42,219.21,179.14,457.26,1.36,188-78.35,325.31-111.37,376-205.12,314.53-597.46,335.12-658.17,338.31-250.73,13.16-434.23-83.68-434.12-84.15s142.33,58.57,305.44,19.17C859.05,1909.6,946.7,1886.2,989,1810.59c48.16-86,10.56-183.44,3.15-202.7-10-25.86-30.79-66.67-95.86-127.28-51.68-48.15-98.34-77.9-143-106.07-13.73-8.66-14.23-8.61-67.94-40.14-7.79-4.57-102.08-59.92-174.36-103.55-82.67-49.9-124-74.86-150.3-93.14-57.15-39.74-112.52-78.26-170.09-141.38-65.16-71.45-99.92-138-107.36-152.57C19.72,719.38,15.13,604.89,13,530.73,6.84,323.17,72.07,156.05,120.09,59.32Z" style="fill:url(#linear-gradient-2)"/><path d="M120.09,59.32C70.32,158.21,6.79,322.61,12.84,527.19c2.27,76.8,7.31,186.63,66,307.59,91.55,188.71,259.31,291.13,374.76,361.6,28.45,17.37,161.31,96.43,275.78,164l24,14.14a547.52,547.52,0,0,0,37.91-211c-.48-23-3.86-115.53-51.27-219.6C681.4,815.41,612.54,794.21,397.34,596,187.47,402.75,147.67,325.94,128.73,255,107.68,176.09,112.74,105.76,120.09,59.32Z" style="fill:#f5efe0;fill-opacity:0.7000000000000001"/></svg>